<svg width="19" height="20" viewBox="0 0 19 20" fill="none" xmlns="http://www.w3.org/2000/svg">
<path d="M14 13.7109H5.388L5.721 12.7109H15.754L18.326 3.71094H3.644L2.744 0.710938H0V2.71094H1.256L3.951 11.6959L3.243 13.8199C2.70161 13.9624 2.21097 14.2537 1.82676 14.6608C1.44254 15.068 1.18013 15.5747 1.06929 16.1234C0.958456 16.6721 1.00363 17.241 1.19969 17.7653C1.39576 18.2897 1.73486 18.7486 2.17852 19.09C2.62219 19.4314 3.15266 19.6416 3.70975 19.6968C4.26684 19.752 4.82824 19.6499 5.33027 19.4022C5.83229 19.1545 6.25485 18.771 6.54998 18.2953C6.84511 17.8196 7.00102 17.2708 7 16.7109C6.99669 16.3695 6.93444 16.0312 6.816 15.7109H11.184C11.0656 16.0312 11.0033 16.3695 11 16.7109C11 17.3043 11.1759 17.8843 11.5056 18.3776C11.8352 18.871 12.3038 19.2555 12.8519 19.4826C13.4001 19.7096 14.0033 19.769 14.5853 19.6533C15.1672 19.5375 15.7018 19.2518 16.1213 18.8323C16.5409 18.4127 16.8266 17.8782 16.9424 17.2962C17.0581 16.7143 16.9987 16.1111 16.7716 15.5629C16.5446 15.0147 16.1601 14.5462 15.6667 14.2165C15.1734 13.8869 14.5933 13.7109 14 13.7109ZM15.674 5.71094L14.246 10.7109H5.746L4.246 5.71094H15.674ZM5 16.7109C5 16.9087 4.94135 17.1021 4.83147 17.2665C4.72159 17.431 4.56541 17.5591 4.38268 17.6348C4.19996 17.7105 3.99889 17.7303 3.80491 17.6917C3.61093 17.6531 3.43275 17.5579 3.29289 17.418C3.15304 17.2782 3.0578 17.1 3.01921 16.906C2.98063 16.712 3.00043 16.511 3.07612 16.3283C3.15181 16.1455 3.27998 15.9893 3.44443 15.8795C3.60888 15.7696 3.80222 15.7109 4 15.7109C4.26522 15.7109 4.51957 15.8163 4.70711 16.0038C4.89464 16.1914 5 16.4457 5 16.7109ZM14 17.7109C13.8022 17.7109 13.6089 17.6523 13.4444 17.5424C13.28 17.4325 13.1518 17.2763 13.0761 17.0936C13.0004 16.9109 12.9806 16.7098 13.0192 16.5158C13.0578 16.3219 13.153 16.1437 13.2929 16.0038C13.4327 15.864 13.6109 15.7687 13.8049 15.7302C13.9989 15.6916 14.2 15.7114 14.3827 15.7871C14.5654 15.8627 14.7216 15.9909 14.8315 16.1554C14.9414 16.3198 15 16.5132 15 16.7109C15 16.9762 14.8946 17.2305 14.7071 17.418C14.5196 17.6056 14.2652 17.7109 14 17.7109Z" fill="black"/>
</svg>
