<svg width="24" height="22" viewBox="0 0 24 22" fill="none" xmlns="http://www.w3.org/2000/svg">
<path d="M14.876 1.67202C14.587 1.16412 14.1686 0.741808 13.6635 0.448037C13.1583 0.154266 12.5844 -0.000488281 12 -0.000488281C11.4156 -0.000488281 10.8417 0.154266 10.3365 0.448037C9.83135 0.741808 9.413 1.16412 9.12399 1.67202L0.413996 17.19C0.137413 17.677 -0.00557155 18.2284 -0.00047892 18.7884C0.00461371 19.3484 0.157603 19.8972 0.442996 20.379C0.73258 20.8762 1.14842 21.2879 1.64839 21.5726C2.14836 21.8573 2.71469 22.0047 3.29 22H20.71C21.2853 22.0047 21.8516 21.8573 22.3516 21.5726C22.8516 21.2879 23.2674 20.8762 23.557 20.379C23.8424 19.8972 23.9954 19.3484 24.0005 18.7884C24.0056 18.2284 23.8626 17.677 23.586 17.19L14.876 1.67202ZM12 18C11.8022 18 11.6089 17.9414 11.4444 17.8315C11.28 17.7216 11.1518 17.5654 11.0761 17.3827C11.0004 17.2 10.9806 16.9989 11.0192 16.8049C11.0578 16.6109 11.153 16.4328 11.2929 16.2929C11.4327 16.1531 11.6109 16.0578 11.8049 16.0192C11.9989 15.9806 12.2 16.0005 12.3827 16.0761C12.5654 16.1518 12.7216 16.28 12.8315 16.4445C12.9413 16.6089 13 16.8022 13 17C13 17.2652 12.8946 17.5196 12.7071 17.7071C12.5196 17.8947 12.2652 18 12 18ZM13 13C13 13.2652 12.8946 13.5196 12.7071 13.7071C12.5196 13.8947 12.2652 14 12 14C11.7348 14 11.4804 13.8947 11.2929 13.7071C11.1054 13.5196 11 13.2652 11 13V7.00002C11 6.7348 11.1054 6.48045 11.2929 6.29291C11.4804 6.10538 11.7348 6.00002 12 6.00002C12.2652 6.00002 12.5196 6.10538 12.7071 6.29291C12.8946 6.48045 13 6.7348 13 7.00002V13Z" fill="#DB2828"/>
</svg>
