<svg width="11" height="7" viewBox="0 0 11 7" fill="none" xmlns="http://www.w3.org/2000/svg">
<path d="M5.99994 6.99994C5.86833 7.0007 5.73787 6.97548 5.61603 6.92571C5.4942 6.87595 5.38338 6.80262 5.28994 6.70994L1.28994 2.70994C1.10164 2.52164 0.99585 2.26624 0.99585 1.99994C0.99585 1.73364 1.10164 1.47824 1.28994 1.28994C1.47825 1.10164 1.73364 0.99585 1.99994 0.99585C2.26624 0.99585 2.52164 1.10164 2.70994 1.28994L5.99994 4.58994L9.28994 1.29994C9.48124 1.13611 9.72732 1.05051 9.97899 1.06023C10.2307 1.06995 10.4694 1.17428 10.6475 1.35238C10.8256 1.53047 10.9299 1.76921 10.9397 2.02089C10.9494 2.27256 10.8638 2.51864 10.6999 2.70994L6.69994 6.70994C6.51368 6.89469 6.26228 6.99884 5.99994 6.99994Z" fill="black"/>
</svg>
