<svg width="26" height="23" viewBox="0 0 26 23" fill="none" xmlns="http://www.w3.org/2000/svg">
<path d="M4.81452 21.375C4.81452 21.5884 4.85603 21.7997 4.93668 21.9969C5.01733 22.194 5.13554 22.3732 5.28456 22.524C5.43359 22.6749 5.6105 22.7946 5.80521 22.8763C5.99992 22.958 6.20861 23 6.41936 23C6.84499 23 7.25318 22.8288 7.55415 22.524C7.70317 22.3732 7.82138 22.194 7.90204 21.9969C7.98269 21.7997 8.0242 21.5884 8.0242 21.375C8.0242 20.944 7.85512 20.5307 7.55415 20.226C7.25318 19.9212 6.84499 19.75 6.41936 19.75C5.99373 19.75 5.58553 19.9212 5.28456 20.226C4.9836 20.5307 4.81452 20.944 4.81452 21.375ZM19.2581 21.375C19.2581 21.5884 19.2996 21.7997 19.3802 21.9969C19.4609 22.194 19.5791 22.3732 19.7281 22.524C19.8771 22.6749 20.0541 22.7946 20.2488 22.8763C20.4435 22.958 20.6522 23 20.8629 23C21.2885 23 21.6967 22.8288 21.9977 22.524C22.1467 22.3732 22.2649 22.194 22.3456 21.9969C22.4262 21.7997 22.4678 21.5884 22.4678 21.375C22.4678 20.944 22.2987 20.5307 21.9977 20.226C21.6967 19.9212 21.2885 19.75 20.8629 19.75C20.4373 19.75 20.0291 19.9212 19.7281 20.226C19.4272 20.5307 19.2581 20.944 19.2581 21.375ZM-0.0465393 1.0625C-0.0465393 1.27799 0.0380011 1.48465 0.188484 1.63702C0.338967 1.7894 0.543065 1.875 0.75588 1.875H2.42331L3.41991 6.191L4.81452 13.25C4.81452 13.3085 4.8418 13.3589 4.84822 13.4158L4.03136 17.137C4.00495 17.2558 4.00531 17.379 4.03242 17.4976C4.05953 17.6162 4.11268 17.7271 4.18793 17.822C4.26318 17.9169 4.35858 17.9935 4.46706 18.0459C4.57554 18.0984 4.6943 18.1254 4.81452 18.125H23.0198C23.2326 18.125 23.4367 18.0394 23.5872 17.887C23.7377 17.7347 23.8222 17.528 23.8222 17.3125C23.8222 17.097 23.7377 16.8903 23.5872 16.738C23.4367 16.5856 23.2326 16.5 23.0198 16.5H5.81594L6.18345 14.8263C6.26369 14.8393 6.33591 14.875 6.41936 14.875H21.0475C21.9333 14.875 22.4678 14.6979 22.8946 13.6562L25.5009 5.5605C25.9535 4.10938 24.9601 3.5 24.0726 3.5H4.81452C4.68934 3.5 4.58021 3.54388 4.46306 3.5715L3.84038 0.87725C3.7991 0.698749 3.69941 0.539631 3.55752 0.425755C3.41563 0.311878 3.23988 0.249938 3.05882 0.25H0.75588C0.543065 0.25 0.338967 0.335603 0.188484 0.487976C0.0380011 0.640349 -0.0465393 0.847012 -0.0465393 1.0625ZM4.84662 5.125H23.9522L21.3909 13.0859C21.3604 13.1558 21.3347 13.2061 21.3155 13.2403C21.2625 13.2451 21.1791 13.25 21.0475 13.25H6.41936V13.0891L6.38887 12.9315L4.84662 5.125Z" fill="black"/>
</svg>
