<svg width="53" height="46" viewBox="0 0 53 46" fill="none" xmlns="http://www.w3.org/2000/svg">
<path d="M36.5231 15.7727C31.6852 16.0254 27.4784 17.4921 24.0629 20.8054C20.6121 24.1529 19.0369 28.2549 19.4675 33.3399C17.5766 33.1057 15.8542 32.848 14.1221 32.7021C13.5239 32.6518 12.8139 32.7233 12.3073 33.0092C10.6254 33.9583 9.01286 35.0299 7.10175 36.2245C7.45244 34.6384 7.67943 33.2495 8.08122 31.9137C8.37678 30.9319 8.23985 30.3854 7.3354 29.7459C1.52789 25.6457 -0.920045 19.5095 0.911912 13.1922C2.60683 7.34796 6.76916 3.80362 12.4248 1.956C20.1443 -0.565482 28.8195 2.00658 33.5135 8.13536C35.2088 10.3492 36.2484 12.834 36.5231 15.7727ZM14.2576 13.8043C14.3022 12.6488 13.301 11.6079 12.1117 11.573C10.8941 11.5373 9.89265 12.4677 9.8571 13.6675C9.82112 14.8835 10.7512 15.858 11.9776 15.8891C13.1935 15.92 14.2127 14.9883 14.2576 13.8043ZM25.8745 11.5723C24.6808 11.5943 23.6722 12.6109 23.6934 13.7709C23.7152 14.9734 24.7046 15.914 25.932 15.8993C27.1626 15.8845 28.0959 14.9338 28.0843 13.7061C28.074 12.5008 27.0891 11.5501 25.8745 11.5723Z" fill="black"/>
<path d="M47.3924 45.9334C45.8605 45.2513 44.4552 44.2279 42.9591 44.0716C41.4688 43.916 39.9021 44.7757 38.3428 44.9352C33.5933 45.4211 29.3383 44.0974 25.8297 40.8528C19.1568 34.6808 20.1103 25.2173 27.8306 20.1595C34.692 15.6642 44.7548 17.1628 49.5924 23.4001C53.8141 28.8427 53.3179 36.0677 48.1641 40.64C46.6728 41.9633 46.1361 43.0523 47.093 44.7967C47.2696 45.1188 47.2898 45.5266 47.3924 45.9334ZM29.9547 29.0501C30.9299 29.0511 31.733 28.2879 31.7699 27.3246C31.8089 26.3048 30.9887 25.4495 29.9675 25.4453C28.9565 25.4407 28.1095 26.308 28.1446 27.3127C28.1778 28.2726 28.9864 29.049 29.9547 29.0501ZM41.1959 25.4493C40.2496 25.4427 39.4456 26.2173 39.407 27.1734C39.366 28.1959 40.1606 29.0354 41.1725 29.038C42.1511 29.0411 42.9243 28.301 42.9599 27.3273C42.9979 26.3025 42.2028 25.4563 41.1959 25.4493Z" fill="black"/>
</svg>
