<svg width="26" height="26" viewBox="0 0 26 26" fill="none" xmlns="http://www.w3.org/2000/svg">
<path d="M0.8125 26C0.387088 25.9998 4.2575e-05 25.6128 0 25.1875V15.4375C4.2575e-05 15.0121 0.387088 14.625 0.8125 14.625H10.5625C10.9879 14.625 11.375 15.0121 11.375 15.4375V25.1875C11.375 25.6128 10.9879 25.9998 10.5625 26H0.8125ZM15.4375 26C15.0121 25.9998 14.625 25.6128 14.625 25.1875V15.4375C14.625 15.0121 15.0121 14.625 15.4375 14.625H25.1875C25.6129 14.625 26 15.0121 26 15.4375V25.1875C26 25.6128 25.6129 25.9998 25.1875 26H15.4375ZM0.8125 11.375C0.387088 11.3748 4.2575e-05 10.9878 0 10.5625V0.8125C4.2575e-05 0.387075 0.387088 0 0.8125 0H10.5625C10.9879 0 11.375 0.387075 11.375 0.8125V10.5625C11.375 10.9878 10.9879 11.3748 10.5625 11.375H0.8125ZM19.5 11.375V10.0547C19.5 9.96853 18.6919 9.94344 17.8337 9.31519L16.8657 10.2832L15.7168 9.13428L16.7292 8.12183C16.4282 7.63644 16.2317 7.08809 16.1484 6.5H14.625V4.875H16.2341C16.3696 4.34769 16.5997 3.86178 16.9133 3.43408L15.7168 2.23755L16.8657 1.08862L18.1067 2.32959C18.5735 2.04066 19.0994 1.84385 19.6619 1.75513V0H21.2869V1.81543C21.7281 1.92105 22.1422 2.09673 22.5183 2.32959L23.7593 1.08862L24.9082 2.23755L23.7117 3.43408C24.0253 3.86178 24.2554 4.34769 24.3909 4.875H26V6.5H24.4766C24.3933 7.08809 24.1968 7.63644 23.8958 8.12183L24.9082 9.13428L23.7593 10.2832L22.7913 9.31519C22.3025 9.67301 21.7395 9.9333 21.125 10.0547V11.375H19.5ZM20.3125 7.88062C20.8512 7.88062 21.3679 7.66661 21.7488 7.28568C22.1297 6.90474 22.3438 6.38809 22.3438 5.84937C22.3438 5.31064 22.1297 4.79399 21.7488 4.41305C21.3679 4.03212 20.8512 3.81812 20.3125 3.81812C19.7738 3.81812 19.2571 4.03212 18.8762 4.41305C18.4953 4.79399 18.2812 5.31064 18.2812 5.84937C18.2812 6.38809 18.4953 6.90474 18.8762 7.28568C19.2571 7.66661 19.7738 7.88062 20.3125 7.88062Z" fill="black"/>
</svg>
