<svg width="22" height="18" viewBox="0 0 22 18" fill="none" xmlns="http://www.w3.org/2000/svg">
<path fill-rule="evenodd" clip-rule="evenodd" d="M0.285656 8.39066C2.2836 3.4839 6.40566 0.333374 10.9998 0.333374C15.594 0.333374 19.7161 3.4839 21.714 8.39066C21.8729 8.78083 21.8729 9.21925 21.714 9.60942C19.7161 14.5162 15.594 17.6667 10.9998 17.6667C6.40566 17.6667 2.2836 14.5162 0.285656 9.60942C0.126787 9.21925 0.126787 8.78083 0.285656 8.39066ZM10.9999 15.6622C14.7038 15.6622 18.0998 13.1024 19.8289 9.00007C18.0998 4.89775 14.7038 2.33794 10.9999 2.33794C7.29591 2.33794 3.89998 4.89775 2.17081 9.00007C3.89998 13.1024 7.29591 15.6622 10.9999 15.6622ZM10.9996 12.9502C8.85595 12.9502 7.11816 11.1816 7.11816 9.00004C7.11816 6.81845 8.85595 5.04993 10.9996 5.04993C13.1433 5.04993 14.8811 6.81845 14.8811 9.00004C14.8811 11.1816 13.1433 12.9502 10.9996 12.9502ZM11.0001 10.9456C12.056 10.9456 12.9119 10.0745 12.9119 9.00002C12.9119 7.92551 12.056 7.05444 11.0001 7.05444C9.94431 7.05444 9.08838 7.92551 9.08838 9.00002C9.08838 10.0745 9.94431 10.9456 11.0001 10.9456Z" fill="#B5B5BE"/>
</svg>
