<svg width="26" height="25" viewBox="0 0 26 25" fill="none" xmlns="http://www.w3.org/2000/svg">
<path fill-rule="evenodd" clip-rule="evenodd" d="M13.4691 24.4611L13.0001 24.6665L12.5311 24.4611C6.50291 20.7657 0.166748 12.3541 0.166748 7.68214C0.187165 3.85664 3.31908 0.750977 7.16675 0.750977C9.59866 0.750977 11.7453 1.99231 13.0001 3.87123C14.2548 1.99231 16.4015 0.750977 18.8334 0.750977C22.6811 0.750977 25.813 3.85664 25.8334 7.68214C25.8334 12.3541 19.4972 20.7657 13.4691 24.4611ZM18.8334 1.91239C16.8769 1.91239 15.0598 2.88481 13.9713 4.51406L13.0001 5.96831L12.0288 4.51348C10.9403 2.88481 9.12325 1.91239 7.16675 1.91239C3.96775 1.91239 1.35033 4.50356 1.33341 7.68214C1.33341 11.8028 7.30325 19.8201 13.0001 23.3837C18.6969 19.8201 24.6667 11.8034 24.6667 7.68798C24.6498 4.50356 22.0324 1.91239 18.8334 1.91239Z" fill="black"/>
</svg>
