<svg width="22" height="22" viewBox="0 0 22 22" fill="none" xmlns="http://www.w3.org/2000/svg">
<path d="M0 11.0011C0.0572 7.87899 1.1594 5.27173 3.3088 3.18152C5.4582 1.09131 8.0212 0.0286029 11 0C14.2076 0.0572057 16.8366 1.15292 18.8848 3.28713C20.933 5.42134 21.9714 7.9934 22 11.0011C21.9428 14.0946 20.8406 16.6953 18.6912 18.8009C16.5418 20.9043 13.9788 21.9714 11 22C9.9682 22 8.9386 21.8416 7.9068 21.527C8.107 21.2123 8.3072 20.8537 8.5074 20.4532C8.7362 19.967 9.0222 19.0495 9.3676 17.703C9.4534 17.3311 9.5832 16.8295 9.7548 16.198C9.955 16.5413 10.2982 16.8559 10.7866 17.1441C12.0758 17.7448 13.4354 17.6876 14.8676 16.9725C16.357 16.1122 17.3888 14.7811 17.9608 12.9769C18.4756 11.0869 18.4118 9.33113 17.7672 7.71397C17.1226 6.09461 15.9698 4.92849 14.3088 4.21122C12.2188 3.61056 10.1838 3.67437 8.2082 4.40484C6.2326 5.13531 4.8576 6.38944 4.0832 8.16502C3.883 8.82288 3.762 9.47635 3.718 10.121C3.674 10.7657 3.696 11.3949 3.7818 12.011C3.8676 12.6271 4.0832 13.1793 4.4264 13.6656C4.7696 14.1518 5.2294 14.5259 5.8014 14.7833C5.9444 14.8405 6.0588 14.8405 6.1446 14.7833C6.259 14.7261 6.3734 14.4972 6.4878 14.0968C6.6022 13.6964 6.6462 13.4235 6.6176 13.2805C6.589 13.2233 6.5318 13.1221 6.446 12.9791C5.8454 12.0044 5.643 10.9813 5.8454 9.90759C6.0456 8.83388 6.49 7.92299 7.1764 7.17932C8.2368 6.23322 9.4754 5.71837 10.8922 5.63256C12.309 5.54675 13.5212 5.93399 14.5222 6.79208C15.0656 7.42134 15.4176 8.18042 15.5738 9.06931C15.73 9.9582 15.7322 10.8097 15.5738 11.626C15.4154 12.4422 15.136 13.2079 14.7356 13.9252C14.0184 15.0429 13.1736 15.615 12.2012 15.6436C11.6292 15.615 11.1628 15.3927 10.8042 14.9769C10.4456 14.5611 10.3378 14.0814 10.483 13.538C10.5402 13.2233 10.7118 12.6073 10.9978 11.6898C11.2838 10.7723 11.4422 10.0858 11.4708 9.62816C11.385 8.53905 10.8834 7.9802 9.966 7.95159C9.2488 8.0374 8.7208 8.36084 8.3754 8.91749C8.03 9.47415 7.8452 10.1144 7.8166 10.8295C7.9024 11.6612 8.0322 12.2332 8.2038 12.5479C7.8892 13.8372 7.645 14.8691 7.4734 15.6414C7.4162 15.8416 7.2578 16.4576 7.0004 17.4895C6.743 18.5215 6.6 19.3091 6.5714 19.8526V21.0561C4.5386 20.11 2.9326 18.7437 1.76 16.9527C0.5874 15.1617 0 13.1771 0 11.0011Z" fill="black"/>
</svg>
