<svg width="6" height="11" viewBox="0 0 6 11" fill="none" xmlns="http://www.w3.org/2000/svg">
<path d="M3.56104 5.45215L0.2758 1.8751C0.141031 1.73899 0.0654297 1.55519 0.0654297 1.36365C0.0654297 1.17211 0.141031 0.988304 0.2758 0.852193C0.341979 0.784993 0.420863 0.731627 0.50786 0.6952C0.594858 0.658774 0.688232 0.640015 0.782548 0.640015C0.876864 0.640015 0.970238 0.658774 1.05724 0.6952C1.14423 0.731627 1.22312 0.784993 1.2893 0.852193L5.29517 4.93965C5.42976 5.07607 5.50521 5.26 5.50521 5.45163C5.50521 5.64326 5.42976 5.82719 5.29517 5.96361L1.2893 10.0511C1.22312 10.1183 1.14423 10.1716 1.05724 10.2081C0.970238 10.2445 0.876864 10.2632 0.782548 10.2632C0.688232 10.2632 0.594858 10.2445 0.50786 10.2081C0.420863 10.1716 0.341979 10.1183 0.2758 10.0511C0.141031 9.91496 0.0654297 9.73115 0.0654297 9.53961C0.0654297 9.34807 0.141031 9.16427 0.2758 9.02816L3.56104 5.45215Z" fill="white"/>
</svg>
