<svg width="29" height="29" viewBox="0 0 29 29" fill="none" xmlns="http://www.w3.org/2000/svg">
<path d="M14.3766 0.779816C11.6422 0.779816 8.96923 1.59066 6.69567 3.10981C4.4221 4.62895 2.65007 6.78818 1.60367 9.31443C0.55726 11.8407 0.283472 14.6205 0.816926 17.3023C1.35038 19.9842 2.66712 22.4476 4.60062 24.3811C6.53413 26.3147 8.99757 27.6314 11.6794 28.1648C14.3613 28.6983 17.1411 28.4245 19.6673 27.3781C22.1936 26.3317 24.3528 24.5597 25.872 22.2861C27.3911 20.0125 28.202 17.3395 28.202 14.6052C28.1979 10.9397 26.74 7.42549 24.1482 4.83361C21.5563 2.24173 18.0421 0.783841 14.3766 0.779816ZM14.3766 25.6654C12.1891 25.6654 10.0507 25.0168 8.23186 23.8014C6.413 22.5861 4.99538 20.8587 4.15826 18.8377C3.32113 16.8167 3.1021 14.5929 3.52886 12.4474C3.95563 10.3019 5.00901 8.33117 6.55582 6.78436C8.10263 5.23756 10.0734 4.18417 12.2189 3.7574C14.3643 3.33064 16.5882 3.54967 18.6092 4.3868C20.6302 5.22392 22.3576 6.64154 23.5729 8.4604C24.7882 10.2792 25.4369 12.4176 25.4369 14.6052C25.4336 17.5375 24.2673 20.3488 22.1938 22.4223C20.1203 24.4958 17.309 25.6621 14.3766 25.6654Z" fill="#E3C066"/>
<path d="M20.3119 9.4801L12.9942 16.7979L9.82404 13.6277L7.86914 15.5826L12.9942 20.7077L22.2669 11.435L20.3119 9.4801Z" fill="#E3C066"/>
</svg>
