<svg width="22" height="22" viewBox="0 0 22 22" fill="none" xmlns="http://www.w3.org/2000/svg">
<path d="M21.5685 20.3238L17.8447 16.6831L17.7574 16.5503C17.5951 16.3888 17.3732 16.2977 17.1416 16.2977C16.91 16.2977 16.6881 16.3888 16.5258 16.5503C13.3611 19.4537 8.48465 19.6115 5.1305 16.9191C1.77634 14.2267 0.985297 9.51956 3.28198 5.91943C5.57867 2.3193 10.2504 0.943332 14.1989 2.70406C18.1474 4.46479 20.1475 8.81586 18.8726 12.8716C18.7808 13.1646 18.8558 13.4833 19.0695 13.7075C19.2831 13.9317 19.6028 14.0275 19.9083 13.9588C20.2137 13.89 20.4585 13.6671 20.5503 13.3741C22.0743 8.56111 19.7725 3.3816 15.1341 1.18623C10.4957 -1.00914 4.91256 0.438474 1.99647 4.59262C-0.919634 8.74676 -0.293566 14.3607 3.46967 17.8029C7.2329 21.245 13.0039 21.4823 17.0495 18.3612L20.3466 21.5848C20.6871 21.9163 21.2377 21.9163 21.5782 21.5848C21.9184 21.2486 21.9184 20.7074 21.5782 20.3712L21.5685 20.3238Z" fill="#200E32"/>
</svg>
