<svg width="40" height="40" viewBox="0 0 40 40" fill="none" xmlns="http://www.w3.org/2000/svg">
<path d="M34.0833 6.84996C29.7067 4.67675 24.8865 3.5459 20 3.5459C15.1135 3.5459 10.2933 4.67675 5.91667 6.84996C5.64181 6.98846 5.41067 7.20036 5.24887 7.46218C5.08707 7.724 5.00093 8.02551 5 8.33329V28.3333C5.00093 28.6411 5.08707 28.9426 5.24887 29.2044C5.41067 29.4662 5.64181 29.6781 5.91667 29.8166L19.25 36.4833C19.4826 36.6005 19.7395 36.6616 20 36.6616C20.2605 36.6616 20.5174 36.6005 20.75 36.4833L34.0833 29.8166C34.3582 29.6781 34.5893 29.4662 34.7511 29.2044C34.9129 28.9426 34.9991 28.6411 35 28.3333V8.33329C34.9991 8.02551 34.9129 7.724 34.7511 7.46218C34.5893 7.20036 34.3582 6.98846 34.0833 6.84996ZM31.6667 27.3L20 33.1333L8.33333 27.3V9.38329C11.9997 7.72667 15.9768 6.86985 20 6.86985C24.0232 6.86985 28.0003 7.72667 31.6667 9.38329V27.3Z" fill="black"/>
<path d="M14.25 18.6166C13.8841 18.4203 13.458 18.3677 13.0553 18.469C12.6526 18.5704 12.3023 18.8185 12.0729 19.1646C11.8435 19.5108 11.7516 19.9301 11.8152 20.3405C11.8788 20.7509 12.0933 21.1227 12.4167 21.3832L17.4167 24.7166C17.6841 24.9066 18.0054 25.0059 18.3334 24.9999C18.5527 25.0012 18.7701 24.9591 18.9732 24.8762C19.1763 24.7932 19.361 24.671 19.5167 24.5166L27.85 16.1832C28.1639 15.8694 28.3402 15.4437 28.3402 14.9999C28.3402 14.5561 28.1639 14.1304 27.85 13.8166C27.5362 13.5027 27.1105 13.3264 26.6667 13.3264C26.2229 13.3264 25.7972 13.5027 25.4834 13.8166L18.1167 21.1832L14.25 18.6166Z" fill="black"/>
</svg>
