<svg width="40" height="40" viewBox="0 0 40 40" fill="none" xmlns="http://www.w3.org/2000/svg">
<g clip-path="url(#clip0_1_204)">
<path d="M28.8457 28.9257H15.2C14.8211 28.9257 14.4578 28.7752 14.1898 28.5073C13.9219 28.2394 13.7714 27.876 13.7714 27.4972C13.7714 27.1183 13.9219 26.7549 14.1898 26.487C14.4578 26.2191 14.8211 26.0686 15.2 26.0686H28.8457C29.2246 26.0686 29.588 26.2191 29.8559 26.487C30.1238 26.7549 30.2743 27.1183 30.2743 27.4972C30.2743 27.876 30.1238 28.2394 29.8559 28.5073C29.588 28.7752 29.2246 28.9257 28.8457 28.9257ZM36.7086 28.9257H36.3657C35.9868 28.9257 35.6235 28.7752 35.3556 28.5073C35.0877 28.2394 34.9371 27.876 34.9371 27.4972C34.9371 27.1183 35.0877 26.7549 35.3556 26.487C35.6235 26.2191 35.9868 26.0686 36.3657 26.0686H36.7086C36.8026 26.0701 36.896 26.0529 36.9832 26.018C37.0705 25.983 37.15 25.9311 37.217 25.8651C37.284 25.7992 37.3372 25.7206 37.3736 25.6338C37.4099 25.5471 37.4286 25.454 37.4286 25.36V20.4571C37.4281 20.2964 37.3738 20.1404 37.2744 20.0141C37.175 19.8877 37.0361 19.7983 36.88 19.76H28.4571C27.5104 19.76 26.6023 19.3847 25.9318 18.7163C25.2612 18.048 24.883 17.141 24.88 16.1943V8.53715C24.8815 8.44367 24.8643 8.35084 24.8292 8.26417C24.7941 8.17751 24.742 8.09878 24.6759 8.03267C24.6098 7.96656 24.5311 7.91443 24.4444 7.87937C24.3577 7.84431 24.2649 7.82703 24.1714 7.82858H7.33714C6.95826 7.82858 6.5949 7.67807 6.32699 7.41016C6.05908 7.14225 5.90857 6.77889 5.90857 6.40001C5.90857 6.02113 6.05908 5.65776 6.32699 5.38985C6.5949 5.12195 6.95826 4.97144 7.33714 4.97144H24.1714C24.6397 4.97144 25.1034 5.06367 25.536 5.24286C25.9686 5.42205 26.3617 5.6847 26.6928 6.01581C27.0239 6.34692 27.2865 6.74 27.4657 7.17261C27.6449 7.60522 27.7371 8.06889 27.7371 8.53715V16.1714C27.7371 16.2655 27.7558 16.3585 27.7922 16.4453C27.8285 16.532 27.8817 16.6106 27.9487 16.6766C28.0157 16.7425 28.0952 16.7945 28.1825 16.8294C28.2698 16.8643 28.3631 16.8815 28.4571 16.88H36.7086C36.9695 16.8834 37.2296 16.9102 37.4857 16.96L37.7371 17.04C38.4771 17.2564 39.1264 17.7082 39.5863 18.327C40.0463 18.9457 40.2918 19.6976 40.2857 20.4686V25.3714C40.2797 26.3162 39.9001 27.2202 39.2299 27.8861C38.5598 28.552 37.6533 28.9257 36.7086 28.9257Z" fill="black"/>
<path d="M37.1999 19.8058C36.9062 19.8058 36.6198 19.7145 36.3803 19.5445C36.1407 19.3746 35.9599 19.1344 35.8628 18.8573L33.5771 12.503C33.5156 12.4172 33.4351 12.3468 33.3419 12.2973C33.2488 12.2477 33.1454 12.2203 33.0399 12.2173H26.2857C25.9068 12.2173 25.5434 12.0667 25.2755 11.7988C25.0076 11.5309 24.8571 11.1676 24.8571 10.7887C24.8571 10.4098 25.0076 10.0464 25.2755 9.77853C25.5434 9.51062 25.9068 9.36011 26.2857 9.36011H33.0399C33.6733 9.36257 34.2942 9.53586 34.8373 9.86171C35.3803 10.1876 35.8255 10.6539 36.1257 11.2115C36.1609 11.2779 36.1914 11.3466 36.2171 11.4173L38.5028 17.8973C38.6278 18.255 38.6067 18.6476 38.4441 18.9899C38.2815 19.3322 37.9905 19.5966 37.6342 19.7258C37.4934 19.7706 37.3475 19.7975 37.1999 19.8058ZM32.6057 35.0287C31.5772 35.0287 30.5718 34.7237 29.7167 34.1523C28.8616 33.5809 28.1951 32.7688 27.8015 31.8186C27.4079 30.8685 27.3049 29.8229 27.5056 28.8142C27.7062 27.8055 28.2015 26.879 28.9287 26.1517C29.6559 25.4245 30.5825 24.9292 31.5912 24.7286C32.5999 24.528 33.6454 24.6309 34.5956 25.0245C35.5458 25.4181 36.3579 26.0846 36.9293 26.9397C37.5007 27.7948 37.8057 28.8002 37.8057 29.8287C37.8057 31.2078 37.2578 32.5304 36.2826 33.5056C35.3074 34.4808 33.9848 35.0287 32.6057 35.0287ZM32.6057 27.4858C32.14 27.4745 31.6816 27.6022 31.2888 27.8526C30.8961 28.103 30.587 28.4648 30.4008 28.8918C30.2147 29.3188 30.1601 29.7915 30.2439 30.2497C30.3278 30.7079 30.5463 31.1307 30.8715 31.4641C31.1968 31.7974 31.6141 32.0263 32.07 32.1215C32.526 32.2166 33 32.1736 33.4314 31.9981C33.8628 31.8226 34.2322 31.5225 34.4922 31.136C34.7523 30.7496 34.8912 30.2945 34.8914 29.8287C34.8916 29.2171 34.6526 28.6297 34.2255 28.1919C33.7984 27.7541 33.2171 27.5007 32.6057 27.4858ZM11.4285 35.0287C10.4001 35.0287 9.39469 34.7237 8.53955 34.1523C7.68442 33.5809 7.01792 32.7688 6.62434 31.8186C6.23077 30.8685 6.12779 29.8229 6.32843 28.8142C6.52908 27.8055 7.02433 26.879 7.75156 26.1517C8.4788 25.4245 9.40535 24.9292 10.414 24.7286C11.4227 24.528 12.4683 24.6309 13.4185 25.0245C14.3686 25.4181 15.1808 26.0846 15.7522 26.9397C16.3235 27.7948 16.6285 28.8002 16.6285 29.8287C16.6285 31.2078 16.0807 32.5304 15.1055 33.5056C14.1303 34.4808 12.8076 35.0287 11.4285 35.0287ZM11.4285 27.4858C10.9651 27.4858 10.5122 27.6232 10.1269 27.8807C9.74162 28.1381 9.44133 28.504 9.264 28.9321C9.08667 29.3602 9.04028 29.8313 9.13068 30.2857C9.22108 30.7402 9.44421 31.1577 9.77187 31.4853C10.0995 31.813 10.517 32.0361 10.9714 32.1265C11.4259 32.2169 11.897 32.1705 12.3251 31.9932C12.7532 31.8159 13.1191 31.5156 13.3765 31.1303C13.634 30.745 13.7714 30.2921 13.7714 29.8287C13.7714 29.2073 13.5245 28.6114 13.0852 28.172C12.6458 27.7327 12.0499 27.4858 11.4285 27.4858Z" fill="black"/>
<path d="M26.2857 28.9258C26.0977 28.9273 25.9113 28.8914 25.7373 28.8201C25.5633 28.7489 25.4052 28.6437 25.2722 28.5107C25.1392 28.3778 25.0341 28.2197 24.9628 28.0457C24.8916 27.8717 24.8557 27.6852 24.8572 27.4972V15.0058C24.8572 14.6269 25.0077 14.2635 25.2756 13.9956C25.5435 13.7277 25.9069 13.5772 26.2857 13.5772C26.6646 13.5772 27.028 13.7277 27.2959 13.9956C27.5638 14.2635 27.7143 14.6269 27.7143 15.0058V27.4972C27.7158 27.6852 27.6799 27.8717 27.6087 28.0457C27.5374 28.2197 27.4323 28.3778 27.2993 28.5107C27.1663 28.6437 27.0082 28.7489 26.8342 28.8201C26.6602 28.8914 26.4738 28.9273 26.2857 28.9258ZM11.6457 15.0515H2.28575C1.90687 15.0515 1.54351 14.901 1.2756 14.6331C1.00769 14.3652 0.857178 14.0018 0.857178 13.6229C0.857178 13.244 1.00769 12.8807 1.2756 12.6128C1.54351 12.3448 1.90687 12.1943 2.28575 12.1943H11.6457C12.0246 12.1943 12.388 12.3448 12.6559 12.6128C12.9238 12.8807 13.0743 13.244 13.0743 13.6229C13.0743 14.0018 12.9238 14.3652 12.6559 14.6331C12.388 14.901 12.0246 15.0515 11.6457 15.0515ZM13.4057 21.4286H8.51432C8.13544 21.4286 7.77208 21.2781 7.50417 21.0102C7.23626 20.7423 7.08575 20.3789 7.08575 20.0001C7.08575 19.6212 7.23626 19.2578 7.50417 18.9899C7.77208 18.722 8.13544 18.5715 8.51432 18.5715H13.4057C13.7846 18.5715 14.148 18.722 14.4159 18.9899C14.6838 19.2578 14.8343 19.6212 14.8343 20.0001C14.8343 20.3789 14.6838 20.7423 14.4159 21.0102C14.148 21.2781 13.7846 21.4286 13.4057 21.4286Z" fill="black"/>
</g>
<defs>
<clipPath id="clip0_1_204">
<rect width="40" height="40" fill="white"/>
</clipPath>
</defs>
</svg>
