<svg width="34" height="34" viewBox="0 0 34 34" fill="none" xmlns="http://www.w3.org/2000/svg">
<path d="M22.7775 12.9037C24.3046 12.9037 25.5426 11.6657 25.5426 10.1386C25.5426 8.6115 24.3046 7.37354 22.7775 7.37354C21.2504 7.37354 20.0125 8.6115 20.0125 10.1386C20.0125 11.6657 21.2504 12.9037 22.7775 12.9037Z" stroke="#9A9AB0" stroke-width="2" stroke-linecap="round" stroke-linejoin="round"/>
<path d="M11.7172 19.3555C13.2443 19.3555 14.4823 18.1175 14.4823 16.5904C14.4823 15.0633 13.2443 13.8253 11.7172 13.8253C10.1901 13.8253 8.95215 15.0633 8.95215 16.5904C8.95215 18.1175 10.1901 19.3555 11.7172 19.3555Z" stroke="#9A9AB0" stroke-width="2" stroke-linecap="round" stroke-linejoin="round"/>
<path d="M22.7775 25.8074C24.3046 25.8074 25.5426 24.5694 25.5426 23.0423C25.5426 21.5152 24.3046 20.2772 22.7775 20.2772C21.2504 20.2772 20.0125 21.5152 20.0125 23.0423C20.0125 24.5694 21.2504 25.8074 22.7775 25.8074Z" stroke="#9A9AB0" stroke-width="2" stroke-linecap="round" stroke-linejoin="round"/>
<path d="M14.1045 17.9823L20.3996 21.6506" stroke="#9A9AB0" stroke-width="2" stroke-linecap="round" stroke-linejoin="round"/>
<path d="M20.3904 11.5305L14.1045 15.1988" stroke="#9A9AB0" stroke-width="2" stroke-linecap="round" stroke-linejoin="round"/>
<rect x="1.15674" y="0.5" width="32.1808" height="32.1808" rx="3.5" stroke="#9A9AB0"/>
</svg>
