<svg width="40" height="40" viewBox="0 0 40 40" fill="none" xmlns="http://www.w3.org/2000/svg">
<path d="M20 12.5625H4.47622C4.31206 12.5622 4.15084 12.5189 4.00867 12.4369C3.86651 12.3548 3.74838 12.2368 3.66612 12.0947C3.58386 11.9527 3.54034 11.7915 3.53992 11.6274C3.5395 11.4632 3.58219 11.3018 3.66372 11.1593L7.3956 4.62495C7.47754 4.48176 7.59581 4.36273 7.73847 4.27988C7.88113 4.19703 8.04312 4.15329 8.2081 4.15308H20C20.2486 4.15308 20.4871 4.25185 20.6629 4.42766C20.8387 4.60348 20.9375 4.84194 20.9375 5.09058C20.9375 5.33922 20.8387 5.57767 20.6629 5.75349C20.4871 5.9293 20.2486 6.02808 20 6.02808H8.75372L6.09185 10.6875H20C20.2486 10.6875 20.4871 10.7862 20.6629 10.962C20.8387 11.1379 20.9375 11.3763 20.9375 11.625C20.9375 11.8736 20.8387 12.112 20.6629 12.2879C20.4871 12.4637 20.2486 12.5625 20 12.5625Z" fill="#222222"/>
<path d="M35.5238 12.5625H20C19.7514 12.5625 19.5129 12.4637 19.3371 12.2879C19.1613 12.112 19.0625 11.8736 19.0625 11.625C19.0625 11.3763 19.1613 11.1379 19.3371 10.962C19.5129 10.7862 19.7514 10.6875 20 10.6875H33.9081L31.2463 6.02808H20C19.7514 6.02808 19.5129 5.9293 19.3371 5.75349C19.1613 5.57767 19.0625 5.33922 19.0625 5.09058C19.0625 4.84194 19.1613 4.60348 19.3371 4.42766C19.5129 4.25185 19.7514 4.15308 20 4.15308H31.79C31.955 4.15329 32.117 4.19703 32.2596 4.27988C32.4023 4.36273 32.5206 4.48176 32.6025 4.62495L36.3375 11.1587C36.419 11.3012 36.4617 11.4626 36.4613 11.6267C36.4609 11.7909 36.4174 11.9521 36.3351 12.0941C36.2528 12.2362 36.1347 12.3541 35.9926 12.4362C35.8504 12.5183 35.6892 12.5616 35.525 12.5618L35.5238 12.5625ZM8.35751 19.5418C7.07995 19.5403 5.85515 19.0322 4.95178 18.1288C4.04841 17.2254 3.54025 16.0006 3.53876 14.7231V11.625C3.53876 11.3763 3.63753 11.1379 3.81334 10.962C3.98916 10.7862 4.22762 10.6875 4.47626 10.6875C4.7249 10.6875 4.96335 10.7862 5.13917 10.962C5.31498 11.1379 5.41376 11.3763 5.41376 11.625V14.7237C5.40807 15.1138 5.48001 15.5012 5.62538 15.8633C5.77075 16.2254 5.98665 16.555 6.26054 16.8329C6.53443 17.1108 6.86083 17.3315 7.22077 17.4821C7.58071 17.6328 7.96701 17.7103 8.35719 17.7103C8.74738 17.7103 9.13368 17.6328 9.49362 17.4821C9.85356 17.3315 10.18 17.1108 10.4538 16.8329C10.7277 16.555 10.9436 16.2254 11.089 15.8633C11.2344 15.5012 11.3063 15.1138 11.3006 14.7237V11.625C11.3006 11.3763 11.3994 11.1379 11.5752 10.962C11.751 10.7862 11.9895 10.6875 12.2381 10.6875C12.4868 10.6875 12.7252 10.7862 12.901 10.962C13.0769 11.1379 13.1756 11.3763 13.1756 11.625V14.7237C13.1741 16.0011 12.666 17.2257 11.7628 18.129C10.8595 19.0322 9.6349 19.5403 8.35751 19.5418Z" fill="#222222"/>
<path d="M16.1193 19.5419C14.8418 19.5404 13.617 19.0322 12.7136 18.1289C11.8103 17.2255 11.3021 16.0007 11.3006 14.7231V11.625C11.3006 11.3764 11.3994 11.1379 11.5752 10.9621C11.751 10.7863 11.9895 10.6875 12.2381 10.6875C12.4867 10.6875 12.7252 10.7863 12.901 10.9621C13.0768 11.1379 13.1756 11.3764 13.1756 11.625V14.7238C13.1699 15.1139 13.2418 15.5013 13.3872 15.8634C13.5326 16.2255 13.7485 16.5551 14.0224 16.833C14.2963 17.1109 14.6227 17.3316 14.9826 17.4822C15.3426 17.6328 15.7288 17.7104 16.119 17.7104C16.5092 17.7104 16.8955 17.6328 17.2555 17.4822C17.6154 17.3316 17.9418 17.1109 18.2157 16.833C18.4896 16.5551 18.7055 16.2255 18.8509 15.8634C18.9962 15.5013 19.0682 15.1139 19.0625 14.7238V11.625C19.0625 11.3764 19.1612 11.1379 19.3371 10.9621C19.5129 10.7863 19.7513 10.6875 20 10.6875C20.2486 10.6875 20.4871 10.7863 20.6629 10.9621C20.8387 11.1379 20.9375 11.3764 20.9375 11.625V14.7238C20.936 16.0011 20.4279 17.2258 19.5246 18.129C18.6214 19.0323 17.3967 19.5404 16.1193 19.5419Z" fill="#222222"/>
<path d="M23.8806 19.5419C22.6031 19.5404 21.3784 19.0322 20.4751 18.1288C19.5719 17.2254 19.0638 16.0006 19.0625 14.7231V11.625C19.0625 11.3764 19.1613 11.1379 19.3371 10.9621C19.5129 10.7863 19.7514 10.6875 20 10.6875C20.2486 10.6875 20.4871 10.7863 20.6629 10.9621C20.8387 11.1379 20.9375 11.3764 20.9375 11.625V14.7238C20.9318 15.1139 21.0037 15.5013 21.1491 15.8634C21.2945 16.2255 21.5104 16.5551 21.7843 16.833C22.0582 17.1109 22.3846 17.3316 22.7445 17.4822C23.1045 17.6328 23.4907 17.7104 23.8809 17.7104C24.2711 17.7104 24.6574 17.6328 25.0174 17.4822C25.3773 17.3316 25.7037 17.1109 25.9776 16.833C26.2515 16.5551 26.4674 16.2255 26.6128 15.8634C26.7581 15.5013 26.8301 15.1139 26.8244 14.7238V11.625C26.8244 11.3764 26.9231 11.1379 27.099 10.9621C27.2748 10.7863 27.5132 10.6875 27.7619 10.6875C28.0105 10.6875 28.249 10.7863 28.4248 10.9621C28.6006 11.1379 28.6994 11.3764 28.6994 11.625V14.7238C28.6977 16.0012 28.1895 17.2258 27.2861 18.1291C26.3828 19.0323 25.1581 19.5404 23.8806 19.5419Z" fill="#222222"/>
<path d="M31.6425 19.5419C30.365 19.5404 29.1403 19.0322 28.237 18.1288C27.3338 17.2254 26.8257 16.0006 26.8244 14.7231V11.625C26.8244 11.3764 26.9232 11.1379 27.099 10.9621C27.2748 10.7863 27.5133 10.6875 27.7619 10.6875C28.0105 10.6875 28.249 10.7863 28.4248 10.9621C28.6006 11.1379 28.6994 11.3764 28.6994 11.625V14.7238C28.6937 15.1139 28.7657 15.5013 28.911 15.8634C29.0564 16.2255 29.2723 16.5551 29.5462 16.833C29.8201 17.1109 30.1465 17.3316 30.5064 17.4822C30.8664 17.6328 31.2527 17.7104 31.6428 17.7104C32.033 17.7104 32.4193 17.6328 32.7793 17.4822C33.1392 17.3316 33.4656 17.1109 33.7395 16.833C34.0134 16.5551 34.2293 16.2255 34.3747 15.8634C34.52 15.5013 34.592 15.1139 34.5863 14.7238V11.625C34.5863 11.3764 34.685 11.1379 34.8609 10.9621C35.0367 10.7863 35.2751 10.6875 35.5238 10.6875C35.7724 10.6875 36.0109 10.7863 36.1867 10.9621C36.3625 11.1379 36.4613 11.3764 36.4613 11.625V14.7238C36.4596 16.0012 35.9514 17.2258 35.048 18.1291C34.1447 19.0323 32.92 19.5404 31.6425 19.5419Z" fill="#222222"/>
<path d="M27.7612 12.5624C27.5598 12.5623 27.3637 12.4974 27.202 12.3772C27.0404 12.2569 26.9218 12.0878 26.8637 11.8949L24.8987 5.36052C24.827 5.12241 24.8529 4.86557 24.9706 4.6465C25.0882 4.42744 25.2881 4.26409 25.5262 4.1924C25.7644 4.12071 26.0212 4.14654 26.2403 4.26422C26.4593 4.3819 26.6227 4.58178 26.6944 4.8199L28.6594 11.3543C28.731 11.592 28.7054 11.8484 28.5883 12.0673C28.4711 12.2861 28.2719 12.4496 28.0344 12.5218C27.9459 12.549 27.8538 12.5626 27.7612 12.5624ZM12.2387 12.5624C12.147 12.5626 12.0558 12.5491 11.9681 12.5224C11.7306 12.4502 11.5314 12.2867 11.4142 12.0679C11.2971 11.849 11.2715 11.5926 11.3431 11.3549L13.3056 4.8199C13.3773 4.58178 13.5407 4.3819 13.7597 4.26422C13.8682 4.20595 13.9871 4.16962 14.1096 4.1573C14.2321 4.14497 14.3558 4.1569 14.4737 4.1924C14.5916 4.2279 14.7014 4.28627 14.7967 4.36419C14.8921 4.4421 14.9711 4.53803 15.0294 4.6465C15.0877 4.75497 15.124 4.87386 15.1363 4.99637C15.1487 5.11888 15.1367 5.24262 15.1012 5.36052L13.1362 11.8943C13.0783 12.0873 12.9598 12.2566 12.7981 12.3769C12.6364 12.4973 12.4403 12.5623 12.2387 12.5624ZM20 12.5624C19.7513 12.5624 19.5129 12.4636 19.3371 12.2878C19.1613 12.112 19.0625 11.8735 19.0625 11.6249V5.09052C19.0625 4.84188 19.1613 4.60343 19.3371 4.42761C19.5129 4.2518 19.7513 4.15302 20 4.15302C20.2486 4.15302 20.4871 4.2518 20.6629 4.42761C20.8387 4.60343 20.9375 4.84188 20.9375 5.09052V11.6249C20.9375 11.8735 20.8387 12.112 20.6629 12.2878C20.4871 12.4636 20.2486 12.5624 20 12.5624ZM20 35.8468H6.05249C5.80385 35.8468 5.56539 35.748 5.38958 35.5722C5.21376 35.3964 5.11499 35.1579 5.11499 34.9093V17.8405C5.11499 17.5919 5.21376 17.3534 5.38958 17.1776C5.56539 17.0018 5.80385 16.903 6.05249 16.903C6.30113 16.903 6.53959 17.0018 6.7154 17.1776C6.89122 17.3534 6.98999 17.5919 6.98999 17.8405V33.9718H20C20.2486 33.9718 20.4871 34.0705 20.6629 34.2464C20.8387 34.4222 20.9375 34.6606 20.9375 34.9093C20.9375 35.1579 20.8387 35.3964 20.6629 35.5722C20.4871 35.748 20.2486 35.8468 20 35.8468Z" fill="#222222"/>
<path d="M33.9475 35.8468H20C19.7514 35.8468 19.5129 35.7481 19.3371 35.5722C19.1613 35.3964 19.0625 35.158 19.0625 34.9093C19.0625 34.6607 19.1613 34.4222 19.3371 34.2464C19.5129 34.0706 19.7514 33.9718 20 33.9718H33.01V17.8406C33.01 17.5919 33.1088 17.3535 33.2846 17.1777C33.4604 17.0018 33.6989 16.9031 33.9475 16.9031C34.1961 16.9031 34.4346 17.0018 34.6104 17.1777C34.7862 17.3535 34.885 17.5919 34.885 17.8406V34.9093C34.885 35.158 34.7862 35.3964 34.6104 35.5722C34.4346 35.7481 34.1961 35.8468 33.9475 35.8468Z" fill="#222222"/>
<path d="M27.4257 35.6125C27.177 35.6125 26.9386 35.5138 26.7627 35.3379C26.5869 35.1621 26.4882 34.9237 26.4882 34.675V24.7594H13.5119V34.6075C13.5119 34.8562 13.4131 35.0946 13.2373 35.2704C13.0615 35.4462 12.823 35.545 12.5744 35.545C12.3258 35.545 12.0873 35.4462 11.9115 35.2704C11.7357 35.0946 11.6369 34.8562 11.6369 34.6075V23.8219C11.6369 23.5733 11.7357 23.3348 11.9115 23.159C12.0873 22.9832 12.3258 22.8844 12.5744 22.8844H27.4257C27.6743 22.8844 27.9127 22.9832 28.0886 23.159C28.2644 23.3348 28.3632 23.5733 28.3632 23.8219V34.675C28.3632 34.9237 28.2644 35.1621 28.0886 35.3379C27.9127 35.5138 27.6743 35.6125 27.4257 35.6125Z" fill="#222222"/>
</svg>
