<svg width="88" height="88" viewBox="0 0 88 88" fill="none" xmlns="http://www.w3.org/2000/svg">
<g clip-path="url(#clip0_251_1043)">
<path opacity="0.4" d="M13.5846 52.7044C12.7881 49.837 14.9444 47 17.9204 47H23.0796C26.0556 47 28.2119 49.837 27.4154 52.7044C26.8744 54.6521 25.101 56 23.0796 56H17.9204C15.899 56 14.1256 54.6521 13.5846 52.7044Z" fill="#E2BE68"/>
<path opacity="0.4" d="M61.5846 52.7044C60.7881 49.837 62.9444 47 65.9204 47H71.0796C74.0556 47 76.2119 49.837 75.4154 52.7044C74.8744 54.6521 73.101 56 71.0796 56H65.9204C63.899 56 62.1256 54.6521 61.5846 52.7044Z" fill="#E2BE68"/>
<path d="M0.0356387 37.4296C0.000348977 38.9164 0.543289 39.5019 0.979204 39.9728C1.11834 40.125 1.23983 40.2551 1.33181 40.4093C1.5369 40.7544 1.68297 41.1831 1.7657 41.6841C3.56229 52.5747 3.96668 54.0592 8.52541 56.4603C10.7076 57.6107 15.1946 58.3821 19.6894 58.3821C23.1943 58.3821 28.257 57.9208 32.4671 55.7247C38.6009 52.5241 40.8863 41.4761 40.9936 40.9201C40.9997 40.864 41.1808 39.5459 43.9831 39.5459H43.986L44.1576 39.5444C46.8159 39.5444 46.999 40.864 47.0183 41.0063C47.1126 41.4761 49.3987 52.5223 55.5321 55.7247C59.7426 57.9222 64.8052 58.3821 68.3102 58.3821C72.805 58.3821 77.2911 57.609 79.4736 56.4603C84.0329 54.0592 84.4373 52.5732 86.233 41.6826C86.3154 41.1831 86.4624 40.7547 86.6675 40.4081C86.7589 40.254 86.8801 40.1235 87.0195 39.9714C87.4554 39.5004 87.9992 38.9132 87.9633 37.4282C87.9573 37.1794 87.968 36.7369 87.9784 36.2518C87.9963 35.511 88.0128 34.6767 87.9873 34.2272C87.8586 32.0245 85.9096 31.1275 84.9287 30.9679C78.6573 29.6798 71.1278 29.3066 63.179 29.8774L62.7639 29.9069C57.9153 30.2499 55.2449 30.4385 52.0622 31.8637C51.3237 32.1949 50.5641 32.5692 49.8916 32.9146C48.6949 33.531 46.9666 34.1998 46.0378 34.4034C45.664 34.4867 45.2851 34.5683 44.9496 34.6357C44.4665 34.7337 43.5319 34.7337 43.0488 34.6357C42.7133 34.5668 42.3344 34.4867 41.9598 34.4034C41.0333 34.1998 39.3049 33.531 38.1074 32.9146C37.4355 32.5695 36.6762 32.1949 35.9371 31.8637C32.7544 30.4385 30.0845 30.2499 25.2359 29.9069L24.8203 29.8774C16.8691 29.3084 9.32897 29.6827 3.10179 30.9632C2.09141 31.1287 0.143532 32.026 0.014812 34.2287C-0.012957 34.6779 0.00526639 35.5124 0.0223327 36.2529C0.0310105 36.7397 0.0414238 37.1832 0.0356387 37.4296ZM86.1578 34.7236V36.3533L84.128 35.5387L86.1578 34.7236ZM50.9624 37.0617C51.2696 36.2992 53.203 33.7592 65.1977 33.0609C67.3007 32.9389 69.0845 32.879 70.6514 32.879C77.7241 32.879 79.9751 34.1506 81.3141 36.2011C82.1157 37.4279 82.6606 39.9942 82.6667 41.621C82.6817 45.1737 81.9673 51.4885 77.0412 53.8761C74.7838 54.9695 71.3989 55.6226 67.9882 55.6226C61.4411 55.6226 56.2078 53.3968 53.9924 49.6702C49.331 41.8405 50.9051 37.1922 50.9624 37.0617ZM6.68138 36.2C8.0221 34.1486 10.2725 32.8778 17.3444 32.8778C18.9119 32.8778 20.6957 32.9377 22.7986 33.0598C34.7908 33.7592 36.7262 36.2995 37.0698 37.1505C37.0884 37.1924 38.6634 41.8426 34.0069 49.6708C31.7891 53.3973 26.5576 55.6232 20.0113 55.6232C16.5992 55.6232 13.214 54.97 10.9561 53.8766C6.02968 51.4891 5.31607 45.1743 5.33025 41.6216C5.33632 39.9925 5.88071 37.4267 6.68138 36.2ZM1.83657 34.7236L3.86544 35.5385L1.83657 36.353V34.7236Z" fill="#E2BE68"/>
</g>
<defs>
<clipPath id="clip0_251_1043">
<rect width="88" height="88" fill="white"/>
</clipPath>
</defs>
</svg>
