<svg width="82" height="50" viewBox="0 0 82 50" fill="none" xmlns="http://www.w3.org/2000/svg">
<path d="M28.6649 19.832L32.5289 16.184C34.8809 14 35.3369 12.512 35.3369 10.88C35.3369 7.832 32.8409 5.912 29.0969 5.912C26.0729 5.912 23.7209 7.136 22.4249 9.032L25.2569 10.856C26.0729 9.728 27.2969 9.176 28.7369 9.176C30.5129 9.176 31.4249 9.944 31.4249 11.264C31.4249 12.08 31.1609 12.944 29.6729 14.36L23.1929 20.48V23H35.8889V19.832H28.6649ZM57.6052 23L57.5572 6.2H54.3652L48.1732 16.64L41.8852 6.2H38.6692V23H42.3172V13.136L47.2372 21.224H48.9892L53.9332 12.92L53.9572 23H57.6052Z" fill="#E2BE68"/>
<path d="M0.93934 36.9393C0.353553 37.5251 0.353553 38.4749 0.93934 39.0607L10.4853 48.6066C11.0711 49.1924 12.0208 49.1924 12.6066 48.6066C13.1924 48.0208 13.1924 47.0711 12.6066 46.4853L4.12132 38L12.6066 29.5147C13.1924 28.9289 13.1924 27.9792 12.6066 27.3934C12.0208 26.8076 11.0711 26.8076 10.4853 27.3934L0.93934 36.9393ZM81.0607 39.0607C81.6464 38.4749 81.6464 37.5251 81.0607 36.9393L71.5147 27.3934C70.9289 26.8076 69.9792 26.8076 69.3934 27.3934C68.8076 27.9792 68.8076 28.9289 69.3934 29.5147L77.8787 38L69.3934 46.4853C68.8076 47.0711 68.8076 48.0208 69.3934 48.6066C69.9792 49.1924 70.9289 49.1924 71.5147 48.6066L81.0607 39.0607ZM2 39.5H80V36.5H2V39.5Z" fill="#E2BE68"/>
</svg>
