<svg width="88" height="30" viewBox="0 0 88 30" fill="none" xmlns="http://www.w3.org/2000/svg">
<path d="M0.0356387 8.42963C0.000348977 9.91642 0.543289 10.5019 0.979204 10.9728C1.11834 11.125 1.23983 11.2551 1.33181 11.4093C1.5369 11.7544 1.68297 12.1831 1.7657 12.6841C3.56229 23.5747 3.96668 25.0592 8.52541 27.4603C10.7076 28.6107 15.1946 29.3821 19.6894 29.3821C23.1943 29.3821 28.257 28.9208 32.4671 26.7247C38.6009 23.5241 40.8863 12.4761 40.9936 11.9201C40.9997 11.864 41.1808 10.5459 43.9831 10.5459H43.986L44.1576 10.5444C46.8159 10.5444 46.999 11.864 47.0183 12.0063C47.1126 12.4761 49.3987 23.5223 55.5321 26.7247C59.7426 28.9222 64.8052 29.3821 68.3102 29.3821C72.805 29.3821 77.2911 28.609 79.4736 27.4603C84.0329 25.0592 84.4373 23.5732 86.233 12.6826C86.3154 12.1831 86.4624 11.7547 86.6675 11.4081C86.7589 11.254 86.8801 11.1235 87.0195 10.9714C87.4554 10.5004 87.9992 9.91324 87.9633 8.42819C87.9573 8.17942 87.968 7.73685 87.9784 7.25176C87.9963 6.51097 88.0128 5.67675 87.9873 5.22724C87.8586 3.02453 85.9096 2.12753 84.9287 1.96786C78.6573 0.67979 71.1278 0.306646 63.179 0.877355L62.7639 0.906859C57.9153 1.24992 55.2449 1.43852 52.0622 2.8637C51.3237 3.1949 50.5641 3.5692 49.8916 3.91458C48.6949 4.53099 46.9666 5.19976 46.0378 5.4034C45.664 5.4867 45.2851 5.56827 44.9496 5.63567C44.4665 5.73373 43.5319 5.73373 43.0488 5.63567C42.7133 5.56683 42.3344 5.4867 41.9598 5.4034C41.0333 5.19976 39.3049 4.53099 38.1074 3.91458C37.4355 3.56949 36.6762 3.1949 35.9371 2.8637C32.7544 1.43852 30.0845 1.24992 25.2359 0.906859L24.8203 0.877355C16.8691 0.308381 9.32897 0.682683 3.10179 1.96323C2.09141 2.12869 0.143532 3.02597 0.014812 5.22869C-0.012957 5.67791 0.00526639 6.51242 0.0223327 7.25292C0.0310105 7.73975 0.0414238 8.18318 0.0356387 8.42963ZM86.1578 5.72361V7.3533L84.128 6.53874L86.1578 5.72361ZM50.9624 8.06169C51.2696 7.29921 53.203 4.75922 65.1977 4.06094C67.3007 3.93888 69.0845 3.879 70.6514 3.879C77.7241 3.879 79.9751 5.15059 81.3141 7.20115C82.1157 8.4279 82.6606 10.9942 82.6667 12.621C82.6817 16.1737 81.9673 22.4885 77.0412 24.8761C74.7838 25.9695 71.3989 26.6226 67.9882 26.6226C61.4411 26.6226 56.2078 24.3968 53.9924 20.6702C49.331 12.8405 50.9051 8.19215 50.9624 8.06169ZM6.68138 7.19999C8.0221 5.14856 10.2725 3.87784 17.3444 3.87784C18.9119 3.87784 20.6957 3.93772 22.7986 4.05979C34.7908 4.75922 36.7262 7.29949 37.0698 8.15049C37.0884 8.19244 38.6634 12.8426 34.0069 20.6708C31.7891 24.3973 26.5576 26.6232 20.0113 26.6232C16.5992 26.6232 13.214 25.97 10.9561 24.8766C6.02968 22.4891 5.31607 16.1743 5.33025 12.6216C5.33632 10.9925 5.88071 8.42674 6.68138 7.19999ZM1.83657 5.72361L3.86544 6.53845L1.83657 7.35301V5.72361Z" fill="#E2BE68"/>
</svg>
