<svg width="70" height="70" viewBox="0 0 70 70" fill="none" xmlns="http://www.w3.org/2000/svg">
<path d="M66.5 22.1666V9.42661C66.5024 8.62271 66.0872 7.87524 65.4033 7.45261C64.7114 7.02119 63.8445 6.98227 63.1167 7.34995L61.8333 7.98811V2.33328C61.8328 1.55188 61.4412 0.822604 60.7901 0.390569C60.139 -0.0414668 59.3148 -0.118906 58.5947 0.184278C42.8295 6.79345 37.0813 11.5698 35 14.3278C32.9187 11.5698 27.1728 6.79345 11.4112 0.186611C10.6908 -0.118974 9.86512 -0.0430775 9.21249 0.388725C8.55986 0.820526 8.16714 1.55073 8.16667 2.33328V7.98811L6.87517 7.34178C6.15234 6.98109 5.29438 7.01993 4.60711 7.44446C3.91983 7.86898 3.50104 8.61879 3.5 9.42661V22.1666C1.567 22.1666 0 23.7336 0 25.6666V26.8333C0.0030376 27.6971 0.327422 28.5288 0.91 29.1666C0.327422 29.8044 0.0030376 30.6361 0 31.4999V32.6666C0.0030376 33.5304 0.327422 34.3622 0.91 34.9999C0.327422 35.6377 0.0030376 36.4695 0 37.3333V38.4999C0.0030376 39.3637 0.327422 40.1955 0.91 40.8333C0.327422 41.4711 0.0030376 42.3028 0 43.1666V44.3333C0 46.2663 1.567 47.8333 3.5 47.8333V55.8249C3.49413 56.7075 3.99237 57.516 4.78333 57.9074L28.1108 69.5741C28.4381 69.7413 28.8003 69.8289 29.1678 69.8296C29.5141 69.8225 29.8544 69.7372 30.163 69.5799C30.5548 69.8543 31.0217 70.001 31.5 69.9999H38.5C38.9775 69.9993 39.4431 69.8514 39.8335 69.5765C40.4748 69.9101 41.2385 69.9101 41.8798 69.5765L65.1898 57.9214C65.994 57.5334 66.5037 56.7179 66.5 55.8249V47.8333C68.433 47.8333 70 46.2663 70 44.3333V43.1666C69.997 42.3028 69.6726 41.4711 69.09 40.8333C69.6726 40.1955 69.997 39.3637 70 38.4999V37.3333C69.997 36.4695 69.6726 35.6377 69.09 34.9999C69.6726 34.3622 69.997 33.5304 70 32.6666V31.4999C69.997 30.6361 69.6726 29.8044 69.09 29.1666C69.6726 28.5288 69.997 27.6971 70 26.8333V25.6666C70 23.7336 68.433 22.1666 66.5 22.1666ZM67.6667 25.6666V26.8333C67.6667 27.4776 67.1443 27.9999 66.5 27.9999H61.25C60.2835 27.9999 59.5 27.2164 59.5 26.2499C59.5 25.2834 60.2835 24.4999 61.25 24.4999H66.5C67.1443 24.4999 67.6667 25.0223 67.6667 25.6666ZM67.6667 31.4999V32.6666C67.6667 33.3109 67.1443 33.8333 66.5 33.8333H58.9167C57.9502 33.8333 57.1667 33.0498 57.1667 32.0833C57.1667 31.1168 57.9502 30.3333 58.9167 30.3333H66.5C67.1443 30.3333 67.6667 30.8556 67.6667 31.4999ZM67.6667 37.3333V38.4999C67.6667 39.1443 67.1443 39.6666 66.5 39.6666H61.25C60.2835 39.6666 59.5 38.8831 59.5 37.9166C59.5 36.9501 60.2835 36.1666 61.25 36.1666H66.5C67.1443 36.1666 67.6667 36.6889 67.6667 37.3333ZM59.5 2.33328V9.15478L39.7833 19.0166C39.7693 19.0236 39.76 19.0353 39.746 19.0423C39.3752 18.8004 38.9427 18.67 38.5 18.6666H36.1667V16.9901C36.2588 16.6226 37.9552 11.3656 59.5 2.33328ZM10.5 2.33328C32.6538 11.6211 33.8205 16.9166 33.8333 16.9166V18.6666H31.5C31.0567 18.6676 30.623 18.796 30.2505 19.0364C30.2365 19.0294 30.2272 19.0178 30.2132 19.0108L10.5 9.15478V2.33328ZM2.33333 25.6666C2.33333 25.0223 2.85567 24.4999 3.5 24.4999H8.75C9.7165 24.4999 10.5 25.2834 10.5 26.2499C10.5 27.2164 9.7165 27.9999 8.75 27.9999H3.5C2.85567 27.9999 2.33333 27.4776 2.33333 26.8333V25.6666ZM10.5 37.9166C10.5 38.8831 9.7165 39.6666 8.75 39.6666H3.5C2.85567 39.6666 2.33333 39.1443 2.33333 38.4999V37.3333C2.33333 36.6889 2.85567 36.1666 3.5 36.1666H8.75C9.7165 36.1666 10.5 36.9501 10.5 37.9166ZM11.0833 33.8333H3.5C2.85567 33.8333 2.33333 33.3109 2.33333 32.6666V31.4999C2.33333 30.8556 2.85567 30.3333 3.5 30.3333H11.0833C12.0498 30.3333 12.8333 31.1168 12.8333 32.0833C12.8333 33.0498 12.0498 33.8333 11.0833 33.8333ZM2.33333 44.3333V43.1666C2.33333 42.5223 2.85567 41.9999 3.5 41.9999H7.58333C8.54983 41.9999 9.33333 42.7835 9.33333 43.7499C9.33333 44.7164 8.54983 45.4999 7.58333 45.4999H3.5C2.85567 45.4999 2.33333 44.9776 2.33333 44.3333ZM5.83333 55.8249V47.8333H7.58333C9.11501 47.8386 10.5199 46.9834 11.2187 45.6204C11.9174 44.2574 11.7916 42.6174 10.8932 41.3769C12.7555 40.2527 13.384 37.8499 12.3107 35.9578C14.0085 35.4313 15.1657 33.8608 15.1657 32.0833C15.1657 30.3057 14.0085 28.7352 12.3107 28.2088C12.6485 27.6109 12.8284 26.9367 12.8333 26.2499C12.8333 25.167 12.4031 24.1284 11.6374 23.3626C10.8716 22.5968 9.83297 22.1666 8.75 22.1666H5.83333V9.43128L8.85383 10.9398L8.8935 10.9596L29.1667 21.0933V67.487L5.83333 55.8249ZM31.5 67.6666V20.9999H38.5V21.0933V67.6666H31.5ZM64.1667 55.8203L40.8333 67.487V21.0968L61.0983 10.9666C61.1205 10.9573 61.1392 10.9456 61.1602 10.9351L64.1667 9.42661V22.1666H61.25C58.9948 22.1666 57.1667 23.9948 57.1667 26.2499C57.1716 26.9367 57.3515 27.6109 57.6893 28.2088C55.9915 28.7352 54.8343 30.3057 54.8343 32.0833C54.8343 33.8608 55.9915 35.4313 57.6893 35.9578C56.616 37.8499 57.2445 40.2527 59.1068 41.3769C58.2084 42.6174 58.0826 44.2574 58.7813 45.6204C59.4801 46.9834 60.885 47.8386 62.4167 47.8333H64.1667V55.8203ZM67.6667 44.3333C67.6667 44.9776 67.1443 45.4999 66.5 45.4999H62.4167C61.4502 45.4999 60.6667 44.7164 60.6667 43.7499C60.6667 42.7835 61.4502 41.9999 62.4167 41.9999H66.5C67.1443 41.9999 67.6667 42.5223 67.6667 43.1666V44.3333Z" fill="#E2BE68"/>
</svg>
